<mxfile host="65bd71144e">
    <diagram id="GP7f2eSs_tTtSGAQbyD9" name="Page-1">
        <mxGraphModel dx="1102" dy="1012" grid="0" gridSize="10" guides="1" tooltips="1" connect="1" arrows="1" fold="1" page="1" pageScale="1" pageWidth="850" pageHeight="1100" math="0" shadow="0">
            <root>
                <mxCell id="0"/>
                <mxCell id="1" parent="0"/>
                <mxCell id="2" value="Searches" style="shape=table;startSize=30;container=1;collapsible=0;childLayout=tableLayout;fontStyle=1;align=center;pointerEvents=1;fontSize=10;" vertex="1" parent="1">
                    <mxGeometry x="466" y="106" width="318" height="418" as="geometry"/>
                </mxCell>
                <mxCell id="3" value="" style="shape=partialRectangle;html=1;whiteSpace=wrap;collapsible=0;dropTarget=0;pointerEvents=0;fillColor=none;top=0;left=0;bottom=0;right=0;points=[[0,0.5],[1,0.5]];portConstraint=eastwest;fontSize=10;" vertex="1" parent="2">
                    <mxGeometry y="30" width="318" height="66" as="geometry"/>
                </mxCell>
                <mxCell id="4" value="/search" style="shape=partialRectangle;html=1;whiteSpace=wrap;connectable=0;fillColor=none;top=0;left=0;bottom=0;right=0;overflow=hidden;pointerEvents=1;fontSize=10;" vertex="1" parent="3">
                    <mxGeometry width="79" height="66" as="geometry">
                        <mxRectangle width="79" height="66" as="alternateBounds"/>
                    </mxGeometry>
                </mxCell>
                <mxCell id="5" value="GET" style="shape=partialRectangle;html=1;whiteSpace=wrap;connectable=0;fillColor=none;top=0;left=0;bottom=0;right=0;overflow=hidden;pointerEvents=1;fontSize=10;" vertex="1" parent="3">
                    <mxGeometry x="79" width="80" height="66" as="geometry">
                        <mxRectangle width="80" height="66" as="alternateBounds"/>
                    </mxGeometry>
                </mxCell>
                <mxCell id="6" value="READ" style="shape=partialRectangle;html=1;whiteSpace=wrap;connectable=0;fillColor=none;top=0;left=0;bottom=0;right=0;overflow=hidden;pointerEvents=1;fontSize=10;" vertex="1" parent="3">
                    <mxGeometry x="159" width="80" height="66" as="geometry">
                        <mxRectangle width="80" height="66" as="alternateBounds"/>
                    </mxGeometry>
                </mxCell>
                <mxCell id="15" value="Filters out user wants to search by and redirects" style="shape=partialRectangle;html=1;whiteSpace=wrap;connectable=0;fillColor=none;top=0;left=0;bottom=0;right=0;overflow=hidden;pointerEvents=1;fontSize=10;" vertex="1" parent="3">
                    <mxGeometry x="239" width="79" height="66" as="geometry">
                        <mxRectangle width="79" height="66" as="alternateBounds"/>
                    </mxGeometry>
                </mxCell>
                <mxCell id="7" value="" style="shape=partialRectangle;html=1;whiteSpace=wrap;collapsible=0;dropTarget=0;pointerEvents=0;fillColor=none;top=0;left=0;bottom=0;right=0;points=[[0,0.5],[1,0.5]];portConstraint=eastwest;fontSize=10;" vertex="1" parent="2">
                    <mxGeometry y="96" width="318" height="61" as="geometry"/>
                </mxCell>
                <mxCell id="8" value="/search&lt;br style=&quot;font-size: 10px;&quot;&gt;/playlists" style="shape=partialRectangle;html=1;whiteSpace=wrap;connectable=0;fillColor=none;top=0;left=0;bottom=0;right=0;overflow=hidden;pointerEvents=1;fontSize=10;" vertex="1" parent="7">
                    <mxGeometry width="79" height="61" as="geometry">
                        <mxRectangle width="79" height="61" as="alternateBounds"/>
                    </mxGeometry>
                </mxCell>
                <mxCell id="9" value="GET" style="shape=partialRectangle;html=1;whiteSpace=wrap;connectable=0;fillColor=none;top=0;left=0;bottom=0;right=0;overflow=hidden;pointerEvents=1;fontSize=10;" vertex="1" parent="7">
                    <mxGeometry x="79" width="80" height="61" as="geometry">
                        <mxRectangle width="80" height="61" as="alternateBounds"/>
                    </mxGeometry>
                </mxCell>
                <mxCell id="10" value="READ" style="shape=partialRectangle;html=1;whiteSpace=wrap;connectable=0;fillColor=none;top=0;left=0;bottom=0;right=0;overflow=hidden;pointerEvents=1;fontSize=10;" vertex="1" parent="7">
                    <mxGeometry x="159" width="80" height="61" as="geometry">
                        <mxRectangle width="80" height="61" as="alternateBounds"/>
                    </mxGeometry>
                </mxCell>
                <mxCell id="16" value="Renders a list of public playlists" style="shape=partialRectangle;html=1;whiteSpace=wrap;connectable=0;fillColor=none;top=0;left=0;bottom=0;right=0;overflow=hidden;pointerEvents=1;fontSize=10;" vertex="1" parent="7">
                    <mxGeometry x="239" width="79" height="61" as="geometry">
                        <mxRectangle width="79" height="61" as="alternateBounds"/>
                    </mxGeometry>
                </mxCell>
                <mxCell id="11" value="" style="shape=partialRectangle;html=1;whiteSpace=wrap;collapsible=0;dropTarget=0;pointerEvents=0;fillColor=none;top=0;left=0;bottom=0;right=0;points=[[0,0.5],[1,0.5]];portConstraint=eastwest;fontSize=10;" vertex="1" parent="2">
                    <mxGeometry y="157" width="318" height="64" as="geometry"/>
                </mxCell>
                <mxCell id="12" value="/search&lt;br style=&quot;font-size: 10px;&quot;&gt;/songs" style="shape=partialRectangle;html=1;whiteSpace=wrap;connectable=0;fillColor=none;top=0;left=0;bottom=0;right=0;overflow=hidden;pointerEvents=1;fontSize=10;" vertex="1" parent="11">
                    <mxGeometry width="79" height="64" as="geometry">
                        <mxRectangle width="79" height="64" as="alternateBounds"/>
                    </mxGeometry>
                </mxCell>
                <mxCell id="13" value="GET" style="shape=partialRectangle;html=1;whiteSpace=wrap;connectable=0;fillColor=none;top=0;left=0;bottom=0;right=0;overflow=hidden;pointerEvents=1;fontSize=10;" vertex="1" parent="11">
                    <mxGeometry x="79" width="80" height="64" as="geometry">
                        <mxRectangle width="80" height="64" as="alternateBounds"/>
                    </mxGeometry>
                </mxCell>
                <mxCell id="14" value="READ" style="shape=partialRectangle;html=1;whiteSpace=wrap;connectable=0;fillColor=none;top=0;left=0;bottom=0;right=0;overflow=hidden;pointerEvents=1;fontSize=10;" vertex="1" parent="11">
                    <mxGeometry x="159" width="80" height="64" as="geometry">
                        <mxRectangle width="80" height="64" as="alternateBounds"/>
                    </mxGeometry>
                </mxCell>
                <mxCell id="17" value="Renders a list of songs based on search" style="shape=partialRectangle;html=1;whiteSpace=wrap;connectable=0;fillColor=none;top=0;left=0;bottom=0;right=0;overflow=hidden;pointerEvents=1;fontSize=10;" vertex="1" parent="11">
                    <mxGeometry x="239" width="79" height="64" as="geometry">
                        <mxRectangle width="79" height="64" as="alternateBounds"/>
                    </mxGeometry>
                </mxCell>
                <mxCell id="28" style="shape=partialRectangle;html=1;whiteSpace=wrap;collapsible=0;dropTarget=0;pointerEvents=0;fillColor=none;top=0;left=0;bottom=0;right=0;points=[[0,0.5],[1,0.5]];portConstraint=eastwest;fontSize=10;" vertex="1" parent="2">
                    <mxGeometry y="221" width="318" height="67" as="geometry"/>
                </mxCell>
                <mxCell id="29" value="/search&lt;br style=&quot;font-size: 10px;&quot;&gt;/artists" style="shape=partialRectangle;html=1;whiteSpace=wrap;connectable=0;fillColor=none;top=0;left=0;bottom=0;right=0;overflow=hidden;pointerEvents=1;fontSize=10;" vertex="1" parent="28">
                    <mxGeometry width="79" height="67" as="geometry">
                        <mxRectangle width="79" height="67" as="alternateBounds"/>
                    </mxGeometry>
                </mxCell>
                <mxCell id="30" value="GET" style="shape=partialRectangle;html=1;whiteSpace=wrap;connectable=0;fillColor=none;top=0;left=0;bottom=0;right=0;overflow=hidden;pointerEvents=1;fontSize=10;" vertex="1" parent="28">
                    <mxGeometry x="79" width="80" height="67" as="geometry">
                        <mxRectangle width="80" height="67" as="alternateBounds"/>
                    </mxGeometry>
                </mxCell>
                <mxCell id="31" value="READ" style="shape=partialRectangle;html=1;whiteSpace=wrap;connectable=0;fillColor=none;top=0;left=0;bottom=0;right=0;overflow=hidden;pointerEvents=1;fontSize=10;" vertex="1" parent="28">
                    <mxGeometry x="159" width="80" height="67" as="geometry">
                        <mxRectangle width="80" height="67" as="alternateBounds"/>
                    </mxGeometry>
                </mxCell>
                <mxCell id="32" value="Renders a list of artists based on search" style="shape=partialRectangle;html=1;whiteSpace=wrap;connectable=0;fillColor=none;top=0;left=0;bottom=0;right=0;overflow=hidden;pointerEvents=1;fontSize=10;" vertex="1" parent="28">
                    <mxGeometry x="239" width="79" height="67" as="geometry">
                        <mxRectangle width="79" height="67" as="alternateBounds"/>
                    </mxGeometry>
                </mxCell>
                <mxCell id="23" style="shape=partialRectangle;html=1;whiteSpace=wrap;collapsible=0;dropTarget=0;pointerEvents=0;fillColor=none;top=0;left=0;bottom=0;right=0;points=[[0,0.5],[1,0.5]];portConstraint=eastwest;fontSize=10;" vertex="1" parent="2">
                    <mxGeometry y="288" width="318" height="62" as="geometry"/>
                </mxCell>
                <mxCell id="24" value="/search/&lt;br style=&quot;font-size: 10px;&quot;&gt;artists/songs" style="shape=partialRectangle;html=1;whiteSpace=wrap;connectable=0;fillColor=none;top=0;left=0;bottom=0;right=0;overflow=hidden;pointerEvents=1;fontSize=10;" vertex="1" parent="23">
                    <mxGeometry width="79" height="62" as="geometry">
                        <mxRectangle width="79" height="62" as="alternateBounds"/>
                    </mxGeometry>
                </mxCell>
                <mxCell id="25" value="GET" style="shape=partialRectangle;html=1;whiteSpace=wrap;connectable=0;fillColor=none;top=0;left=0;bottom=0;right=0;overflow=hidden;pointerEvents=1;fontSize=10;" vertex="1" parent="23">
                    <mxGeometry x="79" width="80" height="62" as="geometry">
                        <mxRectangle width="80" height="62" as="alternateBounds"/>
                    </mxGeometry>
                </mxCell>
                <mxCell id="26" value="READ" style="shape=partialRectangle;html=1;whiteSpace=wrap;connectable=0;fillColor=none;top=0;left=0;bottom=0;right=0;overflow=hidden;pointerEvents=1;fontSize=10;" vertex="1" parent="23">
                    <mxGeometry x="159" width="80" height="62" as="geometry">
                        <mxRectangle width="80" height="62" as="alternateBounds"/>
                    </mxGeometry>
                </mxCell>
                <mxCell id="27" value="Renders a list of top songs by specific artist" style="shape=partialRectangle;html=1;whiteSpace=wrap;connectable=0;fillColor=none;top=0;left=0;bottom=0;right=0;overflow=hidden;pointerEvents=1;fontSize=10;" vertex="1" parent="23">
                    <mxGeometry x="239" width="79" height="62" as="geometry">
                        <mxRectangle width="79" height="62" as="alternateBounds"/>
                    </mxGeometry>
                </mxCell>
                <mxCell id="18" style="shape=partialRectangle;html=1;whiteSpace=wrap;collapsible=0;dropTarget=0;pointerEvents=0;fillColor=none;top=0;left=0;bottom=0;right=0;points=[[0,0.5],[1,0.5]];portConstraint=eastwest;fontSize=10;" vertex="1" parent="2">
                    <mxGeometry y="350" width="318" height="68" as="geometry"/>
                </mxCell>
                <mxCell id="19" value="/search&lt;br style=&quot;font-size: 10px;&quot;&gt;/songs/:id" style="shape=partialRectangle;html=1;whiteSpace=wrap;connectable=0;fillColor=none;top=0;left=0;bottom=0;right=0;overflow=hidden;pointerEvents=1;fontSize=10;" vertex="1" parent="18">
                    <mxGeometry width="79" height="68" as="geometry">
                        <mxRectangle width="79" height="68" as="alternateBounds"/>
                    </mxGeometry>
                </mxCell>
                <mxCell id="20" value="GET" style="shape=partialRectangle;html=1;whiteSpace=wrap;connectable=0;fillColor=none;top=0;left=0;bottom=0;right=0;overflow=hidden;pointerEvents=1;fontSize=10;" vertex="1" parent="18">
                    <mxGeometry x="79" width="80" height="68" as="geometry">
                        <mxRectangle width="80" height="68" as="alternateBounds"/>
                    </mxGeometry>
                </mxCell>
                <mxCell id="21" value="READ" style="shape=partialRectangle;html=1;whiteSpace=wrap;connectable=0;fillColor=none;top=0;left=0;bottom=0;right=0;overflow=hidden;pointerEvents=1;fontSize=10;" vertex="1" parent="18">
                    <mxGeometry x="159" width="80" height="68" as="geometry">
                        <mxRectangle width="80" height="68" as="alternateBounds"/>
                    </mxGeometry>
                </mxCell>
                <mxCell id="22" value="Renders a specific song and it's details" style="shape=partialRectangle;html=1;whiteSpace=wrap;connectable=0;fillColor=none;top=0;left=0;bottom=0;right=0;overflow=hidden;pointerEvents=1;fontSize=10;" vertex="1" parent="18">
                    <mxGeometry x="239" width="79" height="68" as="geometry">
                        <mxRectangle width="79" height="68" as="alternateBounds"/>
                    </mxGeometry>
                </mxCell>
                <mxCell id="33" value="Playlists" style="shape=table;startSize=28;container=1;collapsible=0;childLayout=tableLayout;fontStyle=1;align=center;pointerEvents=1;fontSize=10;" vertex="1" parent="1">
                    <mxGeometry y="319" width="421" height="775" as="geometry"/>
                </mxCell>
                <mxCell id="34" value="" style="shape=partialRectangle;html=1;whiteSpace=wrap;collapsible=0;dropTarget=0;pointerEvents=0;fillColor=none;top=0;left=0;bottom=0;right=0;points=[[0,0.5],[1,0.5]];portConstraint=eastwest;fontSize=10;" vertex="1" parent="33">
                    <mxGeometry y="28" width="421" height="63" as="geometry"/>
                </mxCell>
                <mxCell id="35" value="/playlists&lt;br style=&quot;font-size: 10px;&quot;&gt;/:id" style="shape=partialRectangle;html=1;whiteSpace=wrap;connectable=0;fillColor=none;top=0;left=0;bottom=0;right=0;overflow=hidden;pointerEvents=1;fontSize=10;" vertex="1" parent="34">
                    <mxGeometry width="105" height="63" as="geometry">
                        <mxRectangle width="105" height="63" as="alternateBounds"/>
                    </mxGeometry>
                </mxCell>
                <mxCell id="36" value="GET" style="shape=partialRectangle;html=1;whiteSpace=wrap;connectable=0;fillColor=none;top=0;left=0;bottom=0;right=0;overflow=hidden;pointerEvents=1;fontSize=10;" vertex="1" parent="34">
                    <mxGeometry x="105" width="109" height="63" as="geometry">
                        <mxRectangle width="109" height="63" as="alternateBounds"/>
                    </mxGeometry>
                </mxCell>
                <mxCell id="37" value="READ" style="shape=partialRectangle;html=1;whiteSpace=wrap;connectable=0;fillColor=none;top=0;left=0;bottom=0;right=0;overflow=hidden;pointerEvents=1;fontSize=10;" vertex="1" parent="34">
                    <mxGeometry x="214" width="102" height="63" as="geometry">
                        <mxRectangle width="102" height="63" as="alternateBounds"/>
                    </mxGeometry>
                </mxCell>
                <mxCell id="46" value="Renders specific playlist with songs and comments" style="shape=partialRectangle;html=1;whiteSpace=wrap;connectable=0;fillColor=none;top=0;left=0;bottom=0;right=0;overflow=hidden;pointerEvents=1;fontSize=10;" vertex="1" parent="34">
                    <mxGeometry x="316" width="105" height="63" as="geometry">
                        <mxRectangle width="105" height="63" as="alternateBounds"/>
                    </mxGeometry>
                </mxCell>
                <mxCell id="38" value="" style="shape=partialRectangle;html=1;whiteSpace=wrap;collapsible=0;dropTarget=0;pointerEvents=0;fillColor=none;top=0;left=0;bottom=0;right=0;points=[[0,0.5],[1,0.5]];portConstraint=eastwest;fontSize=10;" vertex="1" parent="33">
                    <mxGeometry y="91" width="421" height="62" as="geometry"/>
                </mxCell>
                <mxCell id="39" value="/playlists" style="shape=partialRectangle;html=1;whiteSpace=wrap;connectable=0;fillColor=none;top=0;left=0;bottom=0;right=0;overflow=hidden;pointerEvents=1;fontSize=10;" vertex="1" parent="38">
                    <mxGeometry width="105" height="62" as="geometry">
                        <mxRectangle width="105" height="62" as="alternateBounds"/>
                    </mxGeometry>
                </mxCell>
                <mxCell id="40" value="POST" style="shape=partialRectangle;html=1;whiteSpace=wrap;connectable=0;fillColor=none;top=0;left=0;bottom=0;right=0;overflow=hidden;pointerEvents=1;fontSize=10;" vertex="1" parent="38">
                    <mxGeometry x="105" width="109" height="62" as="geometry">
                        <mxRectangle width="109" height="62" as="alternateBounds"/>
                    </mxGeometry>
                </mxCell>
                <mxCell id="41" value="CREATE" style="shape=partialRectangle;html=1;whiteSpace=wrap;connectable=0;fillColor=none;top=0;left=0;bottom=0;right=0;overflow=hidden;pointerEvents=1;fontSize=10;" vertex="1" parent="38">
                    <mxGeometry x="214" width="102" height="62" as="geometry">
                        <mxRectangle width="102" height="62" as="alternateBounds"/>
                    </mxGeometry>
                </mxCell>
                <mxCell id="47" value="Find or Creates new playlist and redirects to /users/profile" style="shape=partialRectangle;html=1;whiteSpace=wrap;connectable=0;fillColor=none;top=0;left=0;bottom=0;right=0;overflow=hidden;pointerEvents=1;fontSize=10;" vertex="1" parent="38">
                    <mxGeometry x="316" width="105" height="62" as="geometry">
                        <mxRectangle width="105" height="62" as="alternateBounds"/>
                    </mxGeometry>
                </mxCell>
                <mxCell id="84" style="shape=partialRectangle;html=1;whiteSpace=wrap;collapsible=0;dropTarget=0;pointerEvents=0;fillColor=none;top=0;left=0;bottom=0;right=0;points=[[0,0.5],[1,0.5]];portConstraint=eastwest;fontSize=10;" vertex="1" parent="33">
                    <mxGeometry y="153" width="421" height="63" as="geometry"/>
                </mxCell>
                <mxCell id="85" value="/playlists" style="shape=partialRectangle;html=1;whiteSpace=wrap;connectable=0;fillColor=none;top=0;left=0;bottom=0;right=0;overflow=hidden;pointerEvents=1;fontSize=10;" vertex="1" parent="84">
                    <mxGeometry width="105" height="63" as="geometry">
                        <mxRectangle width="105" height="63" as="alternateBounds"/>
                    </mxGeometry>
                </mxCell>
                <mxCell id="86" value="PUT" style="shape=partialRectangle;html=1;whiteSpace=wrap;connectable=0;fillColor=none;top=0;left=0;bottom=0;right=0;overflow=hidden;pointerEvents=1;fontSize=10;" vertex="1" parent="84">
                    <mxGeometry x="105" width="109" height="63" as="geometry">
                        <mxRectangle width="109" height="63" as="alternateBounds"/>
                    </mxGeometry>
                </mxCell>
                <mxCell id="87" value="UPDATE" style="shape=partialRectangle;html=1;whiteSpace=wrap;connectable=0;fillColor=none;top=0;left=0;bottom=0;right=0;overflow=hidden;pointerEvents=1;fontSize=10;" vertex="1" parent="84">
                    <mxGeometry x="214" width="102" height="63" as="geometry">
                        <mxRectangle width="102" height="63" as="alternateBounds"/>
                    </mxGeometry>
                </mxCell>
                <mxCell id="88" value="Updates name and/or status of playlist, redirects to&lt;br style=&quot;font-size: 10px;&quot;&gt;/users/profile" style="shape=partialRectangle;html=1;whiteSpace=wrap;connectable=0;fillColor=none;top=0;left=0;bottom=0;right=0;overflow=hidden;pointerEvents=1;fontSize=10;" vertex="1" parent="84">
                    <mxGeometry x="316" width="105" height="63" as="geometry">
                        <mxRectangle width="105" height="63" as="alternateBounds"/>
                    </mxGeometry>
                </mxCell>
                <mxCell id="79" style="shape=partialRectangle;html=1;whiteSpace=wrap;collapsible=0;dropTarget=0;pointerEvents=0;fillColor=none;top=0;left=0;bottom=0;right=0;points=[[0,0.5],[1,0.5]];portConstraint=eastwest;fontSize=10;" vertex="1" parent="33">
                    <mxGeometry y="216" width="421" height="59" as="geometry"/>
                </mxCell>
                <mxCell id="80" value="/playlists" style="shape=partialRectangle;html=1;whiteSpace=wrap;connectable=0;fillColor=none;top=0;left=0;bottom=0;right=0;overflow=hidden;pointerEvents=1;fontSize=10;" vertex="1" parent="79">
                    <mxGeometry width="105" height="59" as="geometry">
                        <mxRectangle width="105" height="59" as="alternateBounds"/>
                    </mxGeometry>
                </mxCell>
                <mxCell id="81" value="DELETE" style="shape=partialRectangle;html=1;whiteSpace=wrap;connectable=0;fillColor=none;top=0;left=0;bottom=0;right=0;overflow=hidden;pointerEvents=1;fontSize=10;" vertex="1" parent="79">
                    <mxGeometry x="105" width="109" height="59" as="geometry">
                        <mxRectangle width="109" height="59" as="alternateBounds"/>
                    </mxGeometry>
                </mxCell>
                <mxCell id="82" value="DESTROY" style="shape=partialRectangle;html=1;whiteSpace=wrap;connectable=0;fillColor=none;top=0;left=0;bottom=0;right=0;overflow=hidden;pointerEvents=1;fontSize=10;" vertex="1" parent="79">
                    <mxGeometry x="214" width="102" height="59" as="geometry">
                        <mxRectangle width="102" height="59" as="alternateBounds"/>
                    </mxGeometry>
                </mxCell>
                <mxCell id="83" value="Destroys playlist from Database then redirects to /users/profile" style="shape=partialRectangle;html=1;whiteSpace=wrap;connectable=0;fillColor=none;top=0;left=0;bottom=0;right=0;overflow=hidden;pointerEvents=1;fontSize=10;" vertex="1" parent="79">
                    <mxGeometry x="316" width="105" height="59" as="geometry">
                        <mxRectangle width="105" height="59" as="alternateBounds"/>
                    </mxGeometry>
                </mxCell>
                <mxCell id="74" style="shape=partialRectangle;html=1;whiteSpace=wrap;collapsible=0;dropTarget=0;pointerEvents=0;fillColor=none;top=0;left=0;bottom=0;right=0;points=[[0,0.5],[1,0.5]];portConstraint=eastwest;fontSize=10;" vertex="1" parent="33">
                    <mxGeometry y="275" width="421" height="64" as="geometry"/>
                </mxCell>
                <mxCell id="75" value="/playlists&lt;br style=&quot;font-size: 10px;&quot;&gt;/songs" style="shape=partialRectangle;html=1;whiteSpace=wrap;connectable=0;fillColor=none;top=0;left=0;bottom=0;right=0;overflow=hidden;pointerEvents=1;fontSize=10;" vertex="1" parent="74">
                    <mxGeometry width="105" height="64" as="geometry">
                        <mxRectangle width="105" height="64" as="alternateBounds"/>
                    </mxGeometry>
                </mxCell>
                <mxCell id="76" value="GET" style="shape=partialRectangle;html=1;whiteSpace=wrap;connectable=0;fillColor=none;top=0;left=0;bottom=0;right=0;overflow=hidden;pointerEvents=1;fontSize=10;" vertex="1" parent="74">
                    <mxGeometry x="105" width="109" height="64" as="geometry">
                        <mxRectangle width="109" height="64" as="alternateBounds"/>
                    </mxGeometry>
                </mxCell>
                <mxCell id="77" value="READ" style="shape=partialRectangle;html=1;whiteSpace=wrap;connectable=0;fillColor=none;top=0;left=0;bottom=0;right=0;overflow=hidden;pointerEvents=1;fontSize=10;" vertex="1" parent="74">
                    <mxGeometry x="214" width="102" height="64" as="geometry">
                        <mxRectangle width="102" height="64" as="alternateBounds"/>
                    </mxGeometry>
                </mxCell>
                <mxCell id="78" value="Renders library (list of all songs user has within playlists)" style="shape=partialRectangle;html=1;whiteSpace=wrap;connectable=0;fillColor=none;top=0;left=0;bottom=0;right=0;overflow=hidden;pointerEvents=1;fontSize=10;" vertex="1" parent="74">
                    <mxGeometry x="316" width="105" height="64" as="geometry">
                        <mxRectangle width="105" height="64" as="alternateBounds"/>
                    </mxGeometry>
                </mxCell>
                <mxCell id="69" style="shape=partialRectangle;html=1;whiteSpace=wrap;collapsible=0;dropTarget=0;pointerEvents=0;fillColor=none;top=0;left=0;bottom=0;right=0;points=[[0,0.5],[1,0.5]];portConstraint=eastwest;fontSize=10;" vertex="1" parent="33">
                    <mxGeometry y="339" width="421" height="62" as="geometry"/>
                </mxCell>
                <mxCell id="70" value="/playlists&lt;br&gt;/songs/: id" style="shape=partialRectangle;html=1;whiteSpace=wrap;connectable=0;fillColor=none;top=0;left=0;bottom=0;right=0;overflow=hidden;pointerEvents=1;fontSize=10;" vertex="1" parent="69">
                    <mxGeometry width="105" height="62" as="geometry">
                        <mxRectangle width="105" height="62" as="alternateBounds"/>
                    </mxGeometry>
                </mxCell>
                <mxCell id="71" value="POST" style="shape=partialRectangle;html=1;whiteSpace=wrap;connectable=0;fillColor=none;top=0;left=0;bottom=0;right=0;overflow=hidden;pointerEvents=1;fontSize=10;" vertex="1" parent="69">
                    <mxGeometry x="105" width="109" height="62" as="geometry">
                        <mxRectangle width="109" height="62" as="alternateBounds"/>
                    </mxGeometry>
                </mxCell>
                <mxCell id="72" value="CREATE" style="shape=partialRectangle;html=1;whiteSpace=wrap;connectable=0;fillColor=none;top=0;left=0;bottom=0;right=0;overflow=hidden;pointerEvents=1;fontSize=10;" vertex="1" parent="69">
                    <mxGeometry x="214" width="102" height="62" as="geometry">
                        <mxRectangle width="102" height="62" as="alternateBounds"/>
                    </mxGeometry>
                </mxCell>
                <mxCell id="73" value="Find Or Creates song and adds to user's selected playlist then redirects to /users/profile" style="shape=partialRectangle;html=1;whiteSpace=wrap;connectable=0;fillColor=none;top=0;left=0;bottom=0;right=0;overflow=hidden;pointerEvents=1;fontSize=10;" vertex="1" parent="69">
                    <mxGeometry x="316" width="105" height="62" as="geometry">
                        <mxRectangle width="105" height="62" as="alternateBounds"/>
                    </mxGeometry>
                </mxCell>
                <mxCell id="64" style="shape=partialRectangle;html=1;whiteSpace=wrap;collapsible=0;dropTarget=0;pointerEvents=0;fillColor=none;top=0;left=0;bottom=0;right=0;points=[[0,0.5],[1,0.5]];portConstraint=eastwest;fontSize=10;" vertex="1" parent="33">
                    <mxGeometry y="401" width="421" height="64" as="geometry"/>
                </mxCell>
                <mxCell id="65" value="/playlists&lt;br style=&quot;font-size: 10px;&quot;&gt;/comments" style="shape=partialRectangle;html=1;whiteSpace=wrap;connectable=0;fillColor=none;top=0;left=0;bottom=0;right=0;overflow=hidden;pointerEvents=1;fontSize=10;" vertex="1" parent="64">
                    <mxGeometry width="105" height="64" as="geometry">
                        <mxRectangle width="105" height="64" as="alternateBounds"/>
                    </mxGeometry>
                </mxCell>
                <mxCell id="66" value="POST" style="shape=partialRectangle;html=1;whiteSpace=wrap;connectable=0;fillColor=none;top=0;left=0;bottom=0;right=0;overflow=hidden;pointerEvents=1;fontSize=10;" vertex="1" parent="64">
                    <mxGeometry x="105" width="109" height="64" as="geometry">
                        <mxRectangle width="109" height="64" as="alternateBounds"/>
                    </mxGeometry>
                </mxCell>
                <mxCell id="67" value="CREATE" style="shape=partialRectangle;html=1;whiteSpace=wrap;connectable=0;fillColor=none;top=0;left=0;bottom=0;right=0;overflow=hidden;pointerEvents=1;fontSize=10;" vertex="1" parent="64">
                    <mxGeometry x="214" width="102" height="64" as="geometry">
                        <mxRectangle width="102" height="64" as="alternateBounds"/>
                    </mxGeometry>
                </mxCell>
                <mxCell id="68" value="Creates a new comment and redirects to /playlists/:id" style="shape=partialRectangle;html=1;whiteSpace=wrap;connectable=0;fillColor=none;top=0;left=0;bottom=0;right=0;overflow=hidden;pointerEvents=1;fontSize=10;" vertex="1" parent="64">
                    <mxGeometry x="316" width="105" height="64" as="geometry">
                        <mxRectangle width="105" height="64" as="alternateBounds"/>
                    </mxGeometry>
                </mxCell>
                <mxCell id="59" style="shape=partialRectangle;html=1;whiteSpace=wrap;collapsible=0;dropTarget=0;pointerEvents=0;fillColor=none;top=0;left=0;bottom=0;right=0;points=[[0,0.5],[1,0.5]];portConstraint=eastwest;fontSize=10;" vertex="1" parent="33">
                    <mxGeometry y="465" width="421" height="59" as="geometry"/>
                </mxCell>
                <mxCell id="60" value="&lt;span&gt;/playlists&lt;/span&gt;&lt;br&gt;&lt;span&gt;/comments&lt;/span&gt;" style="shape=partialRectangle;html=1;whiteSpace=wrap;connectable=0;fillColor=none;top=0;left=0;bottom=0;right=0;overflow=hidden;pointerEvents=1;fontSize=10;" vertex="1" parent="59">
                    <mxGeometry width="105" height="59" as="geometry">
                        <mxRectangle width="105" height="59" as="alternateBounds"/>
                    </mxGeometry>
                </mxCell>
                <mxCell id="61" value="PUT" style="shape=partialRectangle;html=1;whiteSpace=wrap;connectable=0;fillColor=none;top=0;left=0;bottom=0;right=0;overflow=hidden;pointerEvents=1;fontSize=10;" vertex="1" parent="59">
                    <mxGeometry x="105" width="109" height="59" as="geometry">
                        <mxRectangle width="109" height="59" as="alternateBounds"/>
                    </mxGeometry>
                </mxCell>
                <mxCell id="62" value="UPDATE" style="shape=partialRectangle;html=1;whiteSpace=wrap;connectable=0;fillColor=none;top=0;left=0;bottom=0;right=0;overflow=hidden;pointerEvents=1;fontSize=10;" vertex="1" parent="59">
                    <mxGeometry x="214" width="102" height="59" as="geometry">
                        <mxRectangle width="102" height="59" as="alternateBounds"/>
                    </mxGeometry>
                </mxCell>
                <mxCell id="63" value="Updates the content of a comment then redirects to /playlists/:id" style="shape=partialRectangle;html=1;whiteSpace=wrap;connectable=0;fillColor=none;top=0;left=0;bottom=0;right=0;overflow=hidden;pointerEvents=1;fontSize=10;" vertex="1" parent="59">
                    <mxGeometry x="316" width="105" height="59" as="geometry">
                        <mxRectangle width="105" height="59" as="alternateBounds"/>
                    </mxGeometry>
                </mxCell>
                <mxCell id="54" style="shape=partialRectangle;html=1;whiteSpace=wrap;collapsible=0;dropTarget=0;pointerEvents=0;fillColor=none;top=0;left=0;bottom=0;right=0;points=[[0,0.5],[1,0.5]];portConstraint=eastwest;fontSize=10;" vertex="1" parent="33">
                    <mxGeometry y="524" width="421" height="62" as="geometry"/>
                </mxCell>
                <mxCell id="55" value="&lt;span&gt;/playlists&lt;/span&gt;&lt;br&gt;&lt;span&gt;/comments&lt;/span&gt;" style="shape=partialRectangle;html=1;whiteSpace=wrap;connectable=0;fillColor=none;top=0;left=0;bottom=0;right=0;overflow=hidden;pointerEvents=1;fontSize=10;" vertex="1" parent="54">
                    <mxGeometry width="105" height="62" as="geometry">
                        <mxRectangle width="105" height="62" as="alternateBounds"/>
                    </mxGeometry>
                </mxCell>
                <mxCell id="56" value="DELETE" style="shape=partialRectangle;html=1;whiteSpace=wrap;connectable=0;fillColor=none;top=0;left=0;bottom=0;right=0;overflow=hidden;pointerEvents=1;fontSize=10;" vertex="1" parent="54">
                    <mxGeometry x="105" width="109" height="62" as="geometry">
                        <mxRectangle width="109" height="62" as="alternateBounds"/>
                    </mxGeometry>
                </mxCell>
                <mxCell id="57" value="DESTROY" style="shape=partialRectangle;html=1;whiteSpace=wrap;connectable=0;fillColor=none;top=0;left=0;bottom=0;right=0;overflow=hidden;pointerEvents=1;fontSize=10;" vertex="1" parent="54">
                    <mxGeometry x="214" width="102" height="62" as="geometry">
                        <mxRectangle width="102" height="62" as="alternateBounds"/>
                    </mxGeometry>
                </mxCell>
                <mxCell id="58" value="Deletes comment from Database then redirects to /playlists/:id" style="shape=partialRectangle;html=1;whiteSpace=wrap;connectable=0;fillColor=none;top=0;left=0;bottom=0;right=0;overflow=hidden;pointerEvents=1;fontSize=10;" vertex="1" parent="54">
                    <mxGeometry x="316" width="105" height="62" as="geometry">
                        <mxRectangle width="105" height="62" as="alternateBounds"/>
                    </mxGeometry>
                </mxCell>
                <mxCell id="49" style="shape=partialRectangle;html=1;whiteSpace=wrap;collapsible=0;dropTarget=0;pointerEvents=0;fillColor=none;top=0;left=0;bottom=0;right=0;points=[[0,0.5],[1,0.5]];portConstraint=eastwest;fontSize=10;" vertex="1" parent="33">
                    <mxGeometry y="586" width="421" height="63" as="geometry"/>
                </mxCell>
                <mxCell id="50" value="&lt;span&gt;/playlists&lt;/span&gt;&lt;br&gt;&lt;span&gt;/likes&lt;/span&gt;" style="shape=partialRectangle;html=1;whiteSpace=wrap;connectable=0;fillColor=none;top=0;left=0;bottom=0;right=0;overflow=hidden;pointerEvents=1;fontSize=10;" vertex="1" parent="49">
                    <mxGeometry width="105" height="63" as="geometry">
                        <mxRectangle width="105" height="63" as="alternateBounds"/>
                    </mxGeometry>
                </mxCell>
                <mxCell id="51" value="POST" style="shape=partialRectangle;html=1;whiteSpace=wrap;connectable=0;fillColor=none;top=0;left=0;bottom=0;right=0;overflow=hidden;pointerEvents=1;fontSize=10;" vertex="1" parent="49">
                    <mxGeometry x="105" width="109" height="63" as="geometry">
                        <mxRectangle width="109" height="63" as="alternateBounds"/>
                    </mxGeometry>
                </mxCell>
                <mxCell id="52" value="CREATE" style="shape=partialRectangle;html=1;whiteSpace=wrap;connectable=0;fillColor=none;top=0;left=0;bottom=0;right=0;overflow=hidden;pointerEvents=1;fontSize=10;" vertex="1" parent="49">
                    <mxGeometry x="214" width="102" height="63" as="geometry">
                        <mxRectangle width="102" height="63" as="alternateBounds"/>
                    </mxGeometry>
                </mxCell>
                <mxCell id="53" value="Find or Creates a user's like on specific playlist then redirects to /playlists/:id" style="shape=partialRectangle;html=1;whiteSpace=wrap;connectable=0;fillColor=none;top=0;left=0;bottom=0;right=0;overflow=hidden;pointerEvents=1;fontSize=10;" vertex="1" parent="49">
                    <mxGeometry x="316" width="105" height="63" as="geometry">
                        <mxRectangle width="105" height="63" as="alternateBounds"/>
                    </mxGeometry>
                </mxCell>
                <mxCell id="42" value="" style="shape=partialRectangle;html=1;whiteSpace=wrap;collapsible=0;dropTarget=0;pointerEvents=0;fillColor=none;top=0;left=0;bottom=0;right=0;points=[[0,0.5],[1,0.5]];portConstraint=eastwest;fontSize=10;" vertex="1" parent="33">
                    <mxGeometry y="649" width="421" height="63" as="geometry"/>
                </mxCell>
                <mxCell id="43" value="&lt;span&gt;/playlists&lt;/span&gt;&lt;br&gt;&lt;span&gt;/likes&lt;/span&gt;" style="shape=partialRectangle;html=1;whiteSpace=wrap;connectable=0;fillColor=none;top=0;left=0;bottom=0;right=0;overflow=hidden;pointerEvents=1;fontSize=10;" vertex="1" parent="42">
                    <mxGeometry width="105" height="63" as="geometry">
                        <mxRectangle width="105" height="63" as="alternateBounds"/>
                    </mxGeometry>
                </mxCell>
                <mxCell id="44" value="DELETE" style="shape=partialRectangle;html=1;whiteSpace=wrap;connectable=0;fillColor=none;top=0;left=0;bottom=0;right=0;overflow=hidden;pointerEvents=1;fontSize=10;" vertex="1" parent="42">
                    <mxGeometry x="105" width="109" height="63" as="geometry">
                        <mxRectangle width="109" height="63" as="alternateBounds"/>
                    </mxGeometry>
                </mxCell>
                <mxCell id="45" value="DESTROY" style="shape=partialRectangle;html=1;whiteSpace=wrap;connectable=0;fillColor=none;top=0;left=0;bottom=0;right=0;overflow=hidden;pointerEvents=1;fontSize=10;" vertex="1" parent="42">
                    <mxGeometry x="214" width="102" height="63" as="geometry">
                        <mxRectangle width="102" height="63" as="alternateBounds"/>
                    </mxGeometry>
                </mxCell>
                <mxCell id="48" value="Deletes like from database" style="shape=partialRectangle;html=1;whiteSpace=wrap;connectable=0;fillColor=none;top=0;left=0;bottom=0;right=0;overflow=hidden;pointerEvents=1;fontSize=10;" vertex="1" parent="42">
                    <mxGeometry x="316" width="105" height="63" as="geometry">
                        <mxRectangle width="105" height="63" as="alternateBounds"/>
                    </mxGeometry>
                </mxCell>
                <mxCell id="137" style="shape=partialRectangle;html=1;whiteSpace=wrap;collapsible=0;dropTarget=0;pointerEvents=0;fillColor=none;top=0;left=0;bottom=0;right=0;points=[[0,0.5],[1,0.5]];portConstraint=eastwest;fontSize=10;" vertex="1" parent="33">
                    <mxGeometry y="712" width="421" height="63" as="geometry"/>
                </mxCell>
                <mxCell id="138" value="&lt;span&gt;/playlists&lt;/span&gt;&lt;br&gt;&lt;span&gt;/: playlistId&lt;/span&gt;&lt;br&gt;&lt;span&gt;/songs/: id&lt;/span&gt;" style="shape=partialRectangle;html=1;whiteSpace=wrap;connectable=0;fillColor=none;top=0;left=0;bottom=0;right=0;overflow=hidden;pointerEvents=1;fontSize=10;" vertex="1" parent="137">
                    <mxGeometry width="105" height="63" as="geometry">
                        <mxRectangle width="105" height="63" as="alternateBounds"/>
                    </mxGeometry>
                </mxCell>
                <mxCell id="139" value="&lt;span&gt;DELETE&lt;/span&gt;" style="shape=partialRectangle;html=1;whiteSpace=wrap;connectable=0;fillColor=none;top=0;left=0;bottom=0;right=0;overflow=hidden;pointerEvents=1;fontSize=10;" vertex="1" parent="137">
                    <mxGeometry x="105" width="109" height="63" as="geometry">
                        <mxRectangle width="109" height="63" as="alternateBounds"/>
                    </mxGeometry>
                </mxCell>
                <mxCell id="140" value="&lt;span&gt;REMOVE&lt;/span&gt;" style="shape=partialRectangle;html=1;whiteSpace=wrap;connectable=0;fillColor=none;top=0;left=0;bottom=0;right=0;overflow=hidden;pointerEvents=1;fontSize=10;" vertex="1" parent="137">
                    <mxGeometry x="214" width="102" height="63" as="geometry">
                        <mxRectangle width="102" height="63" as="alternateBounds"/>
                    </mxGeometry>
                </mxCell>
                <mxCell id="141" value="&lt;span&gt;Removes specific song from users playlist&lt;/span&gt;" style="shape=partialRectangle;html=1;whiteSpace=wrap;connectable=0;fillColor=none;top=0;left=0;bottom=0;right=0;overflow=hidden;pointerEvents=1;fontSize=10;" vertex="1" parent="137">
                    <mxGeometry x="316" width="105" height="63" as="geometry">
                        <mxRectangle width="105" height="63" as="alternateBounds"/>
                    </mxGeometry>
                </mxCell>
                <mxCell id="90" value="Table" style="shape=table;startSize=30;container=1;collapsible=0;childLayout=tableLayout;fontStyle=1;align=center;pointerEvents=1;fontSize=10;" vertex="1" parent="1">
                    <mxGeometry x="453" y="546" width="392" height="554" as="geometry"/>
                </mxCell>
                <mxCell id="91" value="" style="shape=partialRectangle;html=1;whiteSpace=wrap;collapsible=0;dropTarget=0;pointerEvents=0;fillColor=none;top=0;left=0;bottom=0;right=0;points=[[0,0.5],[1,0.5]];portConstraint=eastwest;fontSize=10;" vertex="1" parent="90">
                    <mxGeometry y="30" width="392" height="66" as="geometry"/>
                </mxCell>
                <mxCell id="92" value="/" style="shape=partialRectangle;html=1;whiteSpace=wrap;connectable=0;fillColor=none;top=0;left=0;bottom=0;right=0;overflow=hidden;pointerEvents=1;fontSize=10;" vertex="1" parent="91">
                    <mxGeometry width="98" height="66" as="geometry">
                        <mxRectangle width="98" height="66" as="alternateBounds"/>
                    </mxGeometry>
                </mxCell>
                <mxCell id="93" value="GET" style="shape=partialRectangle;html=1;whiteSpace=wrap;connectable=0;fillColor=none;top=0;left=0;bottom=0;right=0;overflow=hidden;pointerEvents=1;fontSize=10;" vertex="1" parent="91">
                    <mxGeometry x="98" width="99" height="66" as="geometry">
                        <mxRectangle width="99" height="66" as="alternateBounds"/>
                    </mxGeometry>
                </mxCell>
                <mxCell id="94" value="READ" style="shape=partialRectangle;html=1;whiteSpace=wrap;connectable=0;fillColor=none;top=0;left=0;bottom=0;right=0;overflow=hidden;pointerEvents=1;fontSize=10;" vertex="1" parent="91">
                    <mxGeometry x="197" width="97" height="66" as="geometry">
                        <mxRectangle width="97" height="66" as="alternateBounds"/>
                    </mxGeometry>
                </mxCell>
                <mxCell id="103" value="Renders Home page with top 10 tracks and top 5 public playlists" style="shape=partialRectangle;html=1;whiteSpace=wrap;connectable=0;fillColor=none;top=0;left=0;bottom=0;right=0;overflow=hidden;pointerEvents=1;fontSize=10;" vertex="1" parent="91">
                    <mxGeometry x="294" width="98" height="66" as="geometry">
                        <mxRectangle width="98" height="66" as="alternateBounds"/>
                    </mxGeometry>
                </mxCell>
                <mxCell id="95" value="" style="shape=partialRectangle;html=1;whiteSpace=wrap;collapsible=0;dropTarget=0;pointerEvents=0;fillColor=none;top=0;left=0;bottom=0;right=0;points=[[0,0.5],[1,0.5]];portConstraint=eastwest;fontSize=10;" vertex="1" parent="90">
                    <mxGeometry y="96" width="392" height="66" as="geometry"/>
                </mxCell>
                <mxCell id="96" value="/users" style="shape=partialRectangle;html=1;whiteSpace=wrap;connectable=0;fillColor=none;top=0;left=0;bottom=0;right=0;overflow=hidden;pointerEvents=1;fontSize=10;" vertex="1" parent="95">
                    <mxGeometry width="98" height="66" as="geometry">
                        <mxRectangle width="98" height="66" as="alternateBounds"/>
                    </mxGeometry>
                </mxCell>
                <mxCell id="97" value="POST" style="shape=partialRectangle;html=1;whiteSpace=wrap;connectable=0;fillColor=none;top=0;left=0;bottom=0;right=0;overflow=hidden;pointerEvents=1;fontSize=10;" vertex="1" parent="95">
                    <mxGeometry x="98" width="99" height="66" as="geometry">
                        <mxRectangle width="99" height="66" as="alternateBounds"/>
                    </mxGeometry>
                </mxCell>
                <mxCell id="98" value="CREATE" style="shape=partialRectangle;html=1;whiteSpace=wrap;connectable=0;fillColor=none;top=0;left=0;bottom=0;right=0;overflow=hidden;pointerEvents=1;fontSize=10;" vertex="1" parent="95">
                    <mxGeometry x="197" width="97" height="66" as="geometry">
                        <mxRectangle width="97" height="66" as="alternateBounds"/>
                    </mxGeometry>
                </mxCell>
                <mxCell id="104" value="Find Or Creates a new user then redirects to /users/profile" style="shape=partialRectangle;html=1;whiteSpace=wrap;connectable=0;fillColor=none;top=0;left=0;bottom=0;right=0;overflow=hidden;pointerEvents=1;fontSize=10;" vertex="1" parent="95">
                    <mxGeometry x="294" width="98" height="66" as="geometry">
                        <mxRectangle width="98" height="66" as="alternateBounds"/>
                    </mxGeometry>
                </mxCell>
                <mxCell id="99" value="" style="shape=partialRectangle;html=1;whiteSpace=wrap;collapsible=0;dropTarget=0;pointerEvents=0;fillColor=none;top=0;left=0;bottom=0;right=0;points=[[0,0.5],[1,0.5]];portConstraint=eastwest;fontSize=10;" vertex="1" parent="90">
                    <mxGeometry y="162" width="392" height="65" as="geometry"/>
                </mxCell>
                <mxCell id="100" value="/users&lt;br&gt;/new" style="shape=partialRectangle;html=1;whiteSpace=wrap;connectable=0;fillColor=none;top=0;left=0;bottom=0;right=0;overflow=hidden;pointerEvents=1;fontSize=10;" vertex="1" parent="99">
                    <mxGeometry width="98" height="65" as="geometry">
                        <mxRectangle width="98" height="65" as="alternateBounds"/>
                    </mxGeometry>
                </mxCell>
                <mxCell id="101" value="GET" style="shape=partialRectangle;html=1;whiteSpace=wrap;connectable=0;fillColor=none;top=0;left=0;bottom=0;right=0;overflow=hidden;pointerEvents=1;fontSize=10;" vertex="1" parent="99">
                    <mxGeometry x="98" width="99" height="65" as="geometry">
                        <mxRectangle width="99" height="65" as="alternateBounds"/>
                    </mxGeometry>
                </mxCell>
                <mxCell id="102" value="READ" style="shape=partialRectangle;html=1;whiteSpace=wrap;connectable=0;fillColor=none;top=0;left=0;bottom=0;right=0;overflow=hidden;pointerEvents=1;fontSize=10;" vertex="1" parent="99">
                    <mxGeometry x="197" width="97" height="65" as="geometry">
                        <mxRectangle width="97" height="65" as="alternateBounds"/>
                    </mxGeometry>
                </mxCell>
                <mxCell id="105" value="Renders form to create new user" style="shape=partialRectangle;html=1;whiteSpace=wrap;connectable=0;fillColor=none;top=0;left=0;bottom=0;right=0;overflow=hidden;pointerEvents=1;fontSize=10;" vertex="1" parent="99">
                    <mxGeometry x="294" width="98" height="65" as="geometry">
                        <mxRectangle width="98" height="65" as="alternateBounds"/>
                    </mxGeometry>
                </mxCell>
                <mxCell id="106" style="shape=partialRectangle;html=1;whiteSpace=wrap;collapsible=0;dropTarget=0;pointerEvents=0;fillColor=none;top=0;left=0;bottom=0;right=0;points=[[0,0.5],[1,0.5]];portConstraint=eastwest;fontSize=10;" vertex="1" parent="90">
                    <mxGeometry y="227" width="392" height="66" as="geometry"/>
                </mxCell>
                <mxCell id="107" value="/users&lt;br&gt;/login" style="shape=partialRectangle;html=1;whiteSpace=wrap;connectable=0;fillColor=none;top=0;left=0;bottom=0;right=0;overflow=hidden;pointerEvents=1;fontSize=10;" vertex="1" parent="106">
                    <mxGeometry width="98" height="66" as="geometry">
                        <mxRectangle width="98" height="66" as="alternateBounds"/>
                    </mxGeometry>
                </mxCell>
                <mxCell id="108" value="GET" style="shape=partialRectangle;html=1;whiteSpace=wrap;connectable=0;fillColor=none;top=0;left=0;bottom=0;right=0;overflow=hidden;pointerEvents=1;fontSize=10;" vertex="1" parent="106">
                    <mxGeometry x="98" width="99" height="66" as="geometry">
                        <mxRectangle width="99" height="66" as="alternateBounds"/>
                    </mxGeometry>
                </mxCell>
                <mxCell id="109" value="READ" style="shape=partialRectangle;html=1;whiteSpace=wrap;connectable=0;fillColor=none;top=0;left=0;bottom=0;right=0;overflow=hidden;pointerEvents=1;fontSize=10;" vertex="1" parent="106">
                    <mxGeometry x="197" width="97" height="66" as="geometry">
                        <mxRectangle width="97" height="66" as="alternateBounds"/>
                    </mxGeometry>
                </mxCell>
                <mxCell id="110" value="Renders login from that will post to /users/login" style="shape=partialRectangle;html=1;whiteSpace=wrap;connectable=0;fillColor=none;top=0;left=0;bottom=0;right=0;overflow=hidden;pointerEvents=1;fontSize=10;" vertex="1" parent="106">
                    <mxGeometry x="294" width="98" height="66" as="geometry">
                        <mxRectangle width="98" height="66" as="alternateBounds"/>
                    </mxGeometry>
                </mxCell>
                <mxCell id="111" style="shape=partialRectangle;html=1;whiteSpace=wrap;collapsible=0;dropTarget=0;pointerEvents=0;fillColor=none;top=0;left=0;bottom=0;right=0;points=[[0,0.5],[1,0.5]];portConstraint=eastwest;fontSize=10;" vertex="1" parent="90">
                    <mxGeometry y="293" width="392" height="64" as="geometry"/>
                </mxCell>
                <mxCell id="112" value="/users&lt;br&gt;/login" style="shape=partialRectangle;html=1;whiteSpace=wrap;connectable=0;fillColor=none;top=0;left=0;bottom=0;right=0;overflow=hidden;pointerEvents=1;fontSize=10;" vertex="1" parent="111">
                    <mxGeometry width="98" height="64" as="geometry">
                        <mxRectangle width="98" height="64" as="alternateBounds"/>
                    </mxGeometry>
                </mxCell>
                <mxCell id="113" value="POST" style="shape=partialRectangle;html=1;whiteSpace=wrap;connectable=0;fillColor=none;top=0;left=0;bottom=0;right=0;overflow=hidden;pointerEvents=1;fontSize=10;" vertex="1" parent="111">
                    <mxGeometry x="98" width="99" height="64" as="geometry">
                        <mxRectangle width="99" height="64" as="alternateBounds"/>
                    </mxGeometry>
                </mxCell>
                <mxCell id="114" value="CREATE" style="shape=partialRectangle;html=1;whiteSpace=wrap;connectable=0;fillColor=none;top=0;left=0;bottom=0;right=0;overflow=hidden;pointerEvents=1;fontSize=10;" vertex="1" parent="111">
                    <mxGeometry x="197" width="97" height="64" as="geometry">
                        <mxRectangle width="97" height="64" as="alternateBounds"/>
                    </mxGeometry>
                </mxCell>
                <mxCell id="115" value="Checks if user logged in with correct information, then updates cookie to inform user is logged in" style="shape=partialRectangle;html=1;whiteSpace=wrap;connectable=0;fillColor=none;top=0;left=0;bottom=0;right=0;overflow=hidden;pointerEvents=1;fontSize=10;" vertex="1" parent="111">
                    <mxGeometry x="294" width="98" height="64" as="geometry">
                        <mxRectangle width="98" height="64" as="alternateBounds"/>
                    </mxGeometry>
                </mxCell>
                <mxCell id="116" style="shape=partialRectangle;html=1;whiteSpace=wrap;collapsible=0;dropTarget=0;pointerEvents=0;fillColor=none;top=0;left=0;bottom=0;right=0;points=[[0,0.5],[1,0.5]];portConstraint=eastwest;fontSize=10;" vertex="1" parent="90">
                    <mxGeometry y="357" width="392" height="67" as="geometry"/>
                </mxCell>
                <mxCell id="117" value="&lt;meta charset=&quot;utf-8&quot;&gt;&lt;span style=&quot;color: rgb(240, 240, 240); font-family: helvetica; font-size: 10px; font-style: normal; font-weight: 400; letter-spacing: normal; text-align: center; text-indent: 0px; text-transform: none; word-spacing: 0px; background-color: rgb(42, 42, 42); display: inline; float: none;&quot;&gt;/users&lt;/span&gt;&lt;br style=&quot;color: rgb(240, 240, 240); font-family: helvetica; font-size: 10px; font-style: normal; font-weight: 400; letter-spacing: normal; text-align: center; text-indent: 0px; text-transform: none; word-spacing: 0px; background-color: rgb(42, 42, 42);&quot;&gt;&lt;span style=&quot;color: rgb(240, 240, 240); font-family: helvetica; font-size: 10px; font-style: normal; font-weight: 400; letter-spacing: normal; text-align: center; text-indent: 0px; text-transform: none; word-spacing: 0px; background-color: rgb(42, 42, 42); display: inline; float: none;&quot;&gt;/logout&lt;/span&gt;" style="shape=partialRectangle;html=1;whiteSpace=wrap;connectable=0;fillColor=none;top=0;left=0;bottom=0;right=0;overflow=hidden;pointerEvents=1;fontSize=10;" vertex="1" parent="116">
                    <mxGeometry width="98" height="67" as="geometry">
                        <mxRectangle width="98" height="67" as="alternateBounds"/>
                    </mxGeometry>
                </mxCell>
                <mxCell id="118" value="&lt;span&gt;GET&lt;/span&gt;" style="shape=partialRectangle;html=1;whiteSpace=wrap;connectable=0;fillColor=none;top=0;left=0;bottom=0;right=0;overflow=hidden;pointerEvents=1;fontSize=10;" vertex="1" parent="116">
                    <mxGeometry x="98" width="99" height="67" as="geometry">
                        <mxRectangle width="99" height="67" as="alternateBounds"/>
                    </mxGeometry>
                </mxCell>
                <mxCell id="119" value="&lt;span&gt;READ&lt;/span&gt;" style="shape=partialRectangle;html=1;whiteSpace=wrap;connectable=0;fillColor=none;top=0;left=0;bottom=0;right=0;overflow=hidden;pointerEvents=1;fontSize=10;" vertex="1" parent="116">
                    <mxGeometry x="197" width="97" height="67" as="geometry">
                        <mxRectangle width="97" height="67" as="alternateBounds"/>
                    </mxGeometry>
                </mxCell>
                <mxCell id="120" value="&lt;span&gt;Logs user out&lt;/span&gt;&lt;br&gt;&lt;span&gt;then redirects to home page&lt;/span&gt;" style="shape=partialRectangle;html=1;whiteSpace=wrap;connectable=0;fillColor=none;top=0;left=0;bottom=0;right=0;overflow=hidden;pointerEvents=1;fontSize=10;" vertex="1" parent="116">
                    <mxGeometry x="294" width="98" height="67" as="geometry">
                        <mxRectangle width="98" height="67" as="alternateBounds"/>
                    </mxGeometry>
                </mxCell>
                <mxCell id="121" style="shape=partialRectangle;html=1;whiteSpace=wrap;collapsible=0;dropTarget=0;pointerEvents=0;fillColor=none;top=0;left=0;bottom=0;right=0;points=[[0,0.5],[1,0.5]];portConstraint=eastwest;fontSize=10;" vertex="1" parent="90">
                    <mxGeometry y="424" width="392" height="64" as="geometry"/>
                </mxCell>
                <mxCell id="122" value="/users&amp;nbsp;&lt;br&gt;/profile" style="shape=partialRectangle;html=1;whiteSpace=wrap;connectable=0;fillColor=none;top=0;left=0;bottom=0;right=0;overflow=hidden;pointerEvents=1;fontSize=10;" vertex="1" parent="121">
                    <mxGeometry width="98" height="64" as="geometry">
                        <mxRectangle width="98" height="64" as="alternateBounds"/>
                    </mxGeometry>
                </mxCell>
                <mxCell id="123" value="GET" style="shape=partialRectangle;html=1;whiteSpace=wrap;connectable=0;fillColor=none;top=0;left=0;bottom=0;right=0;overflow=hidden;pointerEvents=1;fontSize=10;" vertex="1" parent="121">
                    <mxGeometry x="98" width="99" height="64" as="geometry">
                        <mxRectangle width="99" height="64" as="alternateBounds"/>
                    </mxGeometry>
                </mxCell>
                <mxCell id="124" value="READ" style="shape=partialRectangle;html=1;whiteSpace=wrap;connectable=0;fillColor=none;top=0;left=0;bottom=0;right=0;overflow=hidden;pointerEvents=1;fontSize=10;" vertex="1" parent="121">
                    <mxGeometry x="197" width="97" height="64" as="geometry">
                        <mxRectangle width="97" height="64" as="alternateBounds"/>
                    </mxGeometry>
                </mxCell>
                <mxCell id="125" value="Renders profile page with all playlists user owns" style="shape=partialRectangle;html=1;whiteSpace=wrap;connectable=0;fillColor=none;top=0;left=0;bottom=0;right=0;overflow=hidden;pointerEvents=1;fontSize=10;" vertex="1" parent="121">
                    <mxGeometry x="294" width="98" height="64" as="geometry">
                        <mxRectangle width="98" height="64" as="alternateBounds"/>
                    </mxGeometry>
                </mxCell>
                <mxCell id="126" style="shape=partialRectangle;html=1;whiteSpace=wrap;collapsible=0;dropTarget=0;pointerEvents=0;fillColor=none;top=0;left=0;bottom=0;right=0;points=[[0,0.5],[1,0.5]];portConstraint=eastwest;fontSize=10;" vertex="1" parent="90">
                    <mxGeometry y="488" width="392" height="66" as="geometry"/>
                </mxCell>
                <mxCell id="127" value="/users&lt;br&gt;/actions" style="shape=partialRectangle;html=1;whiteSpace=wrap;connectable=0;fillColor=none;top=0;left=0;bottom=0;right=0;overflow=hidden;pointerEvents=1;fontSize=10;" vertex="1" parent="126">
                    <mxGeometry width="98" height="66" as="geometry">
                        <mxRectangle width="98" height="66" as="alternateBounds"/>
                    </mxGeometry>
                </mxCell>
                <mxCell id="128" value="GET" style="shape=partialRectangle;html=1;whiteSpace=wrap;connectable=0;fillColor=none;top=0;left=0;bottom=0;right=0;overflow=hidden;pointerEvents=1;fontSize=10;" vertex="1" parent="126">
                    <mxGeometry x="98" width="99" height="66" as="geometry">
                        <mxRectangle width="99" height="66" as="alternateBounds"/>
                    </mxGeometry>
                </mxCell>
                <mxCell id="129" value="READ" style="shape=partialRectangle;html=1;whiteSpace=wrap;connectable=0;fillColor=none;top=0;left=0;bottom=0;right=0;overflow=hidden;pointerEvents=1;fontSize=10;" vertex="1" parent="126">
                    <mxGeometry x="197" width="97" height="66" as="geometry">
                        <mxRectangle width="97" height="66" as="alternateBounds"/>
                    </mxGeometry>
                </mxCell>
                <mxCell id="130" value="Renders page of all likes and comments a user has made" style="shape=partialRectangle;html=1;whiteSpace=wrap;connectable=0;fillColor=none;top=0;left=0;bottom=0;right=0;overflow=hidden;pointerEvents=1;fontSize=10;" vertex="1" parent="126">
                    <mxGeometry x="294" width="98" height="66" as="geometry">
                        <mxRectangle width="98" height="66" as="alternateBounds"/>
                    </mxGeometry>
                </mxCell>
            </root>
        </mxGraphModel>
    </diagram>
</mxfile>